<?xml version="1.0" encoding="UTF-8"?>
<svg width="24" height="24" viewBox="0 0 24 24" fill="none" xmlns="http://www.w3.org/2000/svg">
	<path d="M12 2C10.89 2 10 2.89 10 4V10C10 11.11 10.89 12 12 12C13.11 12 14 11.11 14 10V4C14 2.89 13.11 2 12 2Z" fill="#1890ff"/>
	<path d="M17 10V12C17 15.86 13.86 19 10 19H9C5.14 19 2 15.86 2 12V10H4V12C4 14.76 6.24 17 9 17H10C12.76 17 15 14.76 15 12V10H17Z" fill="#1890ff"/>
	<path d="M19 10H21V12C21 16.42 17.42 20 13 20V22C18.52 22 23 17.52 23 12V10H19Z" fill="#1890ff"/>
</svg>